#!OML:ASF F:\VICON\USERDATA\INSTALL\rory3\rory3.ASF
:FULLY-SPECIFIED
:DEGREES
1027
root -1.61459 17.8488 9.21943 -1.5675 -0.557408 0.120175
lowerback 4.17557 0.351492 -1.8759
upperback 1.94056 0.418072 2.77191
thorax -0.380275 0.18855 3.88964
lowerneck -11.1821 1.53284 -9.08553
upperneck 39.5258 4.77994 0.664992
head 15.6661 0.775838 2.67164
rclavicle 4.42296e-015 -8.74653e-015
rhumerus -29.0751 -11.628 -77.8425
rradius 30.5313
rwrist 24.2538
rhand -18.9156 -1.29888
rfingers 7.12502
rthumb 7.38666 -31.1499
lclavicle 4.42296e-015 -8.74653e-015
lhumerus -34.2439 18.0302 80.7718
lradius 28.8407
lwrist -8.65907
lhand -13.9049 25.56
lfingers 7.12502
lthumb 12.2208 55.183
rfemur -8.06503 -0.459681 25.2774
rtibia 26.8964
rfoot -12.9541 -2.06611
rtoes 16.8737
lfemur -27.3082 -2.22373 -20.0902
ltibia 84.3058
lfoot -8.77973 -8.36432
ltoes -2.99425
1028
root -1.61282 17.8711 9.25561 -1.46194 -0.711295 0.273664
lowerback 4.01427 0.347703 -1.99938
upperback 1.94759 0.408771 2.66507
thorax -0.28225 0.181944 3.84967
lowerneck -11.344 1.41498 -9.10432
upperneck 39.4607 4.54331 0.851265
head 15.6755 0.697494 2.72076
rclavicle -8.94531e-016 2.38542e-015
rhumerus -29.2162 -11.5261 -78.0525
rradius 31.0803
rwrist 23.6801
rhand -18.9571 -1.16701
rfingers 7.12502
rthumb 7.34658 -31.0195
lclavicle -8.94531e-016 2.38542e-015
lhumerus -34.3588 17.7682 80.9275
lradius 28.8789
lwrist -10.1504
lhand -13.6881 25.3981
lfingers 7.12502
lthumb 12.4298 55.0085
rfemur -7.72691 -0.300944 25.1055
rtibia 26.2521
rfoot -12.915 -2.31106
rtoes 15.4804
lfemur -27.4562 -2.36925 -20.3151
ltibia 84.0069
lfoot -8.93242 -8.34847
ltoes -3.79296
1029
root -1.60826 17.8957 9.29884 -1.30425 -0.878891 0.411423
lowerback 3.72598 0.351992 -2.07219
upperback 1.93343 0.414194 2.5812
thorax -0.136109 0.182404 3.80466
lowerneck -11.4789 1.27251 -9.27251
upperneck 39.3904 4.29468 1.07563
head 15.6744 0.598326 2.80958
rclavicle 1.71949e-014 6.36111e-015
rhumerus -29.4543 -11.2443 -78.2184
rradius 31.6747
rwrist 23.0074
rhand -19.32 -0.82215
rfingers 7.12502
rthumb 6.99626 -30.6865
lclavicle 1.71949e-014 6.36111e-015
lhumerus -34.55 17.4871 81.1467
lradius 28.9476
lwrist -11.2003
lhand -14.1057 24.7335
lfingers 7.12502
lthumb 12.0272 54.3679
rfemur -7.42805 -0.148696 24.9435
rtibia 25.7056
rfoot -12.9192 -2.40148
rtoes 14.145
lfemur -27.6282 -2.45354 -20.5308
ltibia 83.672
lfoot -8.88342 -8.15847
ltoes -4.86581
1030
root -1.60591 17.9196 9.33661 -1.07565 -1.02961 0.577175
lowerback 3.53534 0.343852 -2.24955
upperback 1.81374 0.400719 2.53451
thorax -0.15213 0.176708 3.85757
lowerneck -11.5764 1.17836 -9.68679
upperneck 39.4018 4.07843 1.58721
head 15.6875 0.512998 3.07176
rclavicle -1.98785e-016 -7.95139e-015
rhumerus -29.8455 -10.7019 -78.3754
rradius 32.2466
rwrist 21.9294
rhand -20.2385 0.0691101
rfingers 7.12502
rthumb 6.10959 -29.8228
lclavicle -1.98785e-016 -7.95139e-015
lhumerus -34.9179 16.9832 81.4553
lradius 29.1562
lwrist -11.6844
lhand -14.2547 24.4141
lfingers 7.12502
lthumb 11.8835 54.0568
rfemur -7.26956 0.0524724 24.7749
rtibia 25.2162
rfoot -12.8811 -2.42146
rtoes 13.2261
lfemur -27.9072 -2.49078 -20.7522
ltibia 83.3308
lfoot -8.63377 -7.67715
ltoes -4.70364
1031
root -1.60512 17.9435 9.36674 -0.825124 -1.2399 1.02383
lowerback 3.38591 0.374924 -2.7398
upperback 1.70637 0.429734 2.39397
thorax -0.183194 0.191177 3.9888
lowerneck -11.7362 1.07962 -10.3993
upperneck 39.4542 3.74941 2.61842
head 15.7188 0.405214 3.59812
rclavicle -1.90833e-014 -1.74931e-014
rhumerus -30.1886 -10.1749 -78.5768
rradius 33.0157
rwrist 21.296
rhand -20.307 0.135823
rfingers 7.12502
rthumb 6.04345 -29.758
lclavicle -1.90833e-014 -1.74931e-014
lhumerus -35.1174 16.4568 81.7545
lradius 29.2733
lwrist -11.8599
lhand -14.1604 24.3787
lfingers 7.12502
lthumb 11.9744 54.0162
rfemur -7.19763 0.37866 24.2957
rtibia 24.7187
rfoot -12.7031 -2.51465
rtoes 12.9454
lfemur -28.2349 -2.45109 -21.2939
ltibia 82.9401
lfoot -8.44059 -6.90317
ltoes -4.46916
1032
root -1.60114 17.9605 9.39913 -0.595512 -1.49176 1.19326
lowerback 3.21468 0.409783 -2.86792
upperback 1.61077 0.475689 2.2802
thorax -0.189829 0.215585 3.94219
lowerneck -11.8907 0.979222 -10.6775
upperneck 39.4682 3.49976 3.11743
head 15.7589 0.3234 3.83039
rclavicle -1.73937e-015 -1.19271e-014
rhumerus -30.5171 -9.60773 -78.8539
rradius 33.7011
rwrist 20.5886
rhand -20.1155 -0.0541349
rfingers 7.12502
rthumb 6.22832 -29.9426
lclavicle -1.73937e-015 -1.19271e-014
lhumerus -35.2583 15.9978 81.94
lradius 29.2969
lwrist -11.7049
lhand -14.2799 24.3032
lfingers 7.12502
lthumb 11.8592 53.9474
rfemur -7.06117 0.681306 24.0997
rtibia 24.2008
rfoot -12.3511 -2.67084
rtoes 13.414
lfemur -28.4943 -2.33626 -21.5327
ltibia 82.534
lfoot -8.55625 -6.18219
ltoes -4.69881
1033
root -1.5946 17.9797 9.43584 -0.436024 -1.77668 1.14434
lowerback 3.1489 0.44839 -2.70883
upperback 1.48704 0.532992 2.21016
thorax -0.283612 0.248935 3.77734
lowerneck -11.9742 0.916746 -10.5614
upperneck 39.3702 3.39093 3.07422
head 15.7418 0.291198 3.77219
rclavicle -2.23633e-015 3.97569e-015
rhumerus -31.0205 -8.85839 -79.1583
rradius 34.4224
rwrist 19.8554
rhand -20.2334 -0.195596
rfingers 7.12502
rthumb 6.11447 -30.0874
lclavicle -2.23633e-015 3.97569e-015
lhumerus -35.5549 15.6719 82.0061
lradius 29.3878
lwrist -11.3848
lhand -14.5199 24.2327
lfingers 7.12502
lthumb 11.6278 53.8901
rfemur -6.79992 0.938995 24.1282
rtibia 23.644
rfoot -12.0817 -2.77564
rtoes 13.5396
lfemur -28.6402 -2.14832 -21.514
ltibia 82.0809
lfoot -8.78425 -5.56321
ltoes -5.49302
